<?xml version="1.0" standalone="no"?>
<!DOCTYPE svg PUBLIC "-//W3C//DTD SVG 20010904//EN" "http://www.w3.org/TR/2001/REC-SVG-20010904/DTD/svg10.dtd">
<svg xmlns="http://www.w3.org/2000/svg" version="1.0" width="1280.000000pt" height="1280.000000pt" viewBox="0 0 1280.000000 1280.000000" preserveAspectRatio="xMidYMid meet">
<metadata>Created by potrace 1.16, written by Peter Selinger 2001-2019<meta name="Producer" content="Online-Convert"/></metadata>
<g transform="translate(0.000000,1280.000000) scale(0.100000,-0.100000)" fill="#b4091d" stroke="none">
<path d="M6518 11393 c-31 -5 -82 -49 -73 -63 3 -5 1 -18 -5 -27 -10 -16 -11 -15 -6 5 4 23 -24 47 -31 26 -2 -6 -50 -82 -108 -170 -141 -216 -326 -501 -380 -585 -5 -9 -23 -36 -39 -60 -16 -24 -58 -89 -94 -144 -36 -55 -86 -131 -112 -170 -26 -38 -49 -75 -51 -80 -2 -6 -49 -78 -103 -160 -54 -83 -112 -170 -127 -195 -16 -25 -38 -58 -49 -75 -12 -16 -45 -66 -73 -110 -28 -44 -94 -145 -146 -225 -52 -80 -110 -170 -129 -200 -20 -30 -81 -125 -137 -210 -56 -85 -116 -177 -133 -205 -18 -27 -37 -57 -42 -65 -6 -8 -56 -85 -113 -170 l-102 -155 -70 -12 c-38 -8 -131 -22 -205 -33 -74 -12 -151 -25 -170 -29 -19 -5 -60 -12 -90 -16 -30 -3 -93 -13 -140 -22 -47 -8 -155 -26 -240 -39 -85 -14 -225 -36 -310 -50 -85 -14 -211 -34 -280 -44 -69 -11 -136 -22 -150 -26 -14 -4 -92 -17 -175 -30 -82 -13 -220 -34 -305 -48 -723 -118 -762 -125 -922 -150 -153 -24 -280 -45 -438 -72 -47 -8 -130 -21 -185 -29 -164 -23 -275 -48 -275 -61 0 -9 63 -70 206 -199 95 -86 206 -187 309 -280 66 -60 158 -144 204 -185 46 -41 96 -86 111 -100 15 -14 67 -61 116 -105 138 -124 203 -183 305 -276 52 -47 193 -175 314 -284 121 -109 225 -203 231 -209 6 -6 49 -45 95 -86 72 -65 151 -137 385 -349 28 -25 88 -80 134 -121 97 -87 106 -96 224 -203 49 -45 95 -87 104 -93 14 -10 14 -19 3 -65 -6 -30 -21 -119 -32 -199 -10 -80 -31 -221 -45 -315 -24 -163 -44 -296 -98 -675 -14 -96 -28 -184 -31 -195 -3 -11 -14 -85 -25 -165 -50 -361 -68 -489 -78 -540 -6 -30 -16 -100 -23 -155 -6 -55 -15 -116 -19 -135 -5 -19 -16 -93 -25 -165 -9 -71 -20 -150 -26 -175 -5 -25 -18 -110 -29 -190 -11 -80 -29 -201 -39 -270 -11 -69 -20 -133 -21 -142 0 -25 29 -23 92 6 29 13 64 27 78 31 14 4 39 13 55 21 28 12 49 20 185 74 30 11 69 28 87 35 17 8 34 15 38 15 4 0 33 11 64 25 51 22 122 50 341 137 41 16 98 38 126 48 28 10 59 23 70 29 10 6 62 27 114 46 52 19 114 44 138 55 23 11 47 20 52 20 6 0 29 9 53 19 42 20 117 50 192 78 22 8 54 21 70 28 17 8 59 25 95 38 36 13 99 38 140 55 41 17 118 47 170 67 52 20 109 43 125 50 17 8 73 30 125 50 52 21 113 45 135 55 22 9 58 23 80 30 22 7 45 16 50 20 6 3 33 15 60 25 28 10 55 21 60 25 6 4 34 15 64 25 29 9 65 24 80 31 14 8 30 14 35 14 5 0 34 11 65 25 72 31 373 151 466 185 28 10 64 25 80 33 17 9 42 19 57 22 l27 7 3 -542 3 -542 29 -24 28 -25 1117 4 c974 3 1124 5 1181 19 36 9 99 21 140 28 41 7 90 18 107 26 18 7 35 9 38 5 3 -5 17 -12 32 -16 16 -3 53 -17 83 -30 30 -13 98 -40 150 -60 52 -20 113 -44 135 -54 22 -11 51 -22 65 -26 14 -4 39 -13 55 -21 17 -7 54 -22 83 -34 28 -11 76 -29 105 -40 28 -12 66 -27 82 -34 17 -8 46 -19 66 -25 20 -6 53 -20 74 -31 22 -11 49 -20 60 -20 21 0 21 3 13 63 -5 34 -13 85 -18 112 -9 49 -38 253 -44 317 -2 18 -6 40 -9 48 -3 8 -15 80 -26 160 -31 216 -41 248 -35 115 2 -61 9 -138 15 -170 6 -33 21 -136 34 -230 13 -93 26 -178 30 -187 4 -10 3 -18 -2 -18 -17 0 -46 39 -50 68 -7 44 -11 67 -13 67 -2 0 -10 54 -14 101 -2 22 -9 50 -15 62 -7 13 -8 23 -1 27 6 4 4 14 -5 28 -9 14 -11 27 -5 37 5 9 3 25 -7 43 -23 45 -29 174 -10 219 9 21 19 58 23 84 7 46 6 46 -52 105 -32 32 -55 59 -50 59 4 0 -24 33 -63 72 -39 40 -71 79 -71 86 0 7 -5 10 -12 6 -6 -4 -8 -3 -5 2 3 5 -22 36 -55 69 -42 42 -62 56 -66 46 -7 -19 -177 -190 -226 -227 -110 -82 -148 -107 -226 -147 -106 -55 -231 -106 -274 -111 -21 -3 -49 4 -80 20 -26 13 -51 24 -56 24 -5 0 -21 5 -37 12 -15 6 -31 11 -35 10 -5 -1 -8 2 -8 8 0 5 -8 10 -18 10 -10 0 -22 4 -27 9 -6 5 -45 21 -89 35 -43 15 -92 34 -109 43 -17 8 -62 26 -101 39 -38 13 -79 30 -90 37 -12 8 -46 22 -76 32 -30 10 -61 22 -67 28 -7 5 -13 7 -13 3 0 -3 -21 4 -47 18 -27 13 -59 27 -73 31 -14 4 -38 13 -55 20 -16 7 -52 21 -80 31 -27 10 -61 24 -75 31 -14 7 -29 13 -33 13 -4 0 -29 9 -55 21 -26 11 -60 26 -77 34 -16 7 -55 20 -85 30 -30 10 -60 22 -67 27 -12 10 -106 46 -134 53 -9 2 -38 14 -65 28 -27 13 -74 32 -104 42 -30 10 -59 21 -65 25 -5 4 -27 13 -48 20 -22 7 -51 18 -65 26 -15 8 -34 14 -42 14 -9 0 -24 6 -35 14 -11 7 -40 21 -65 29 -105 38 -136 49 -174 66 -23 10 -54 23 -71 30 -27 10 -30 16 -30 54 l0 42 320 -2 c176 -2 326 1 333 5 23 15 20 565 -3 603 -3 3 -7 24 -10 45 -3 22 -8 45 -11 53 -2 8 -7 30 -10 50 -3 20 -8 43 -11 51 -14 35 -11 40 23 40 l34 0 2 123 c5 242 4 258 -31 360 -11 31 -17 57 -14 57 4 0 -4 11 -17 25 -17 18 -35 25 -64 26 -31 1 -21 5 37 13 48 7 81 17 87 26 13 20 13 367 0 375 -7 4 -6 14 2 28 13 23 23 279 13 333 -3 17 -14 40 -26 52 -11 12 -17 22 -13 22 3 0 1 7 -6 15 -8 10 -32 15 -69 16 l-56 1 70 15 c112 23 110 19 110 252 0 110 -3 197 -7 195 -5 -3 -8 2 -8 10 0 9 -3 15 -7 14 -20 -5 -663 15 -664 21 0 3 -2 13 -3 21 -3 12 13 15 91 17 173 3 296 33 393 96 110 70 159 135 195 256 16 53 19 176 5 196 -8 11 -24 85 -22 98 1 4 -2 7 -7 7 -10 0 -27 39 -23 53 1 5 -2 6 -7 3 -8 -5 -23 16 -25 36 -1 9 -49 53 -57 53 -4 0 -19 10 -32 22 -14 12 -27 19 -30 17 -2 -2 -10 2 -17 11 -7 8 -20 16 -29 17 -9 1 33 4 93 7 l109 6 29 68 29 68 0 237 c-1 253 -2 292 -12 286 -6 -3 -17 37 -22 78 -1 9 -4 15 -8 12 -10 -6 -20 26 -12 38 3 7 1 8 -5 4 -7 -4 -12 -2 -12 3 0 6 4 11 8 11 5 0 21 55 35 123 23 101 28 152 31 294 1 95 -1 174 -6 175 -5 2 -4 25 2 53 12 49 21 334 12 368 -9 34 -19 16 -26 -45 -5 -54 -16 -77 -37 -78 -15 0 -60 56 -68 84 -11 44 -4 56 34 56 69 0 81 11 93 89 7 38 12 121 13 183 0 91 2 109 12 94 7 -10 37 -57 68 -105 31 -47 88 -135 127 -196 39 -60 85 -130 102 -155 17 -25 60 -90 95 -145 35 -55 69 -107 74 -115 6 -8 34 -51 62 -95 28 -44 68 -105 89 -135 20 -30 39 -59 41 -65 6 -15 122 -189 129 -195 4 -3 15 -20 24 -37 9 -18 20 -33 25 -33 5 0 49 55 97 123 l88 122 3 245 c1 135 3 258 3 275 l0 29 41 -39 c22 -22 46 -49 52 -60 28 -52 36 -146 37 -419 0 -243 -2 -277 -14 -261 -8 11 -12 23 -10 27 3 4 -5 12 -17 19 -20 10 -19 6 10 -46 18 -31 30 -60 26 -63 -9 -9 -19 6 -74 110 -28 53 -51 109 -51 125 l-1 28 -25 -30 c-13 -16 -56 -73 -94 -126 l-70 -96 0 -319 c0 -373 -2 -364 83 -364 71 1 107 20 252 134 132 104 181 163 191 228 4 21 8 38 10 38 24 0 248 -33 274 -41 19 -5 148 -27 285 -49 464 -72 770 -122 774 -126 3 -2 -5 -32 -16 -67 -12 -34 -29 -87 -38 -117 -9 -30 -27 -77 -40 -105 -13 -27 -31 -66 -39 -85 -9 -19 -33 -62 -54 -96 -127 -206 -310 -368 -537 -474 -104 -49 -108 -63 -28 -105 173 -91 358 -261 484 -445 85 -126 191 -330 220 -423 9 -30 -4 -45 -146 -169 -27 -24 -66 -59 -86 -78 -58 -55 -104 -97 -228 -207 -63 -57 -119 -110 -124 -118 -9 -16 57 -533 72 -571 5 -11 14 -72 20 -135 7 -63 16 -134 21 -159 5 -25 19 -113 30 -197 11 -83 25 -164 29 -180 5 -15 12 -68 15 -117 4 -49 13 -117 20 -150 8 -34 17 -86 21 -116 3 -30 12 -95 20 -145 7 -49 21 -148 30 -220 10 -71 22 -138 27 -148 5 -10 51 -65 101 -121 51 -56 130 -146 177 -199 46 -53 87 -97 90 -97 14 1 32 22 84 100 79 118 197 362 241 500 21 63 42 124 46 135 5 11 18 61 29 110 12 50 23 99 26 110 3 11 14 73 24 138 10 65 21 125 24 135 36 127 49 869 20 1125 -9 78 -17 154 -17 170 0 15 -4 27 -8 27 -4 0 -10 24 -15 53 -13 97 -19 126 -27 147 -13 30 -59 185 -60 203 -1 9 -5 17 -10 17 -9 0 -5 -25 25 -145 10 -44 22 -91 25 -105 2 -14 7 -34 9 -45 14 -66 43 -273 49 -350 7 -82 6 -88 -9 -76 -12 10 -14 17 -6 25 15 15 12 29 -5 22 -17 -6 -22 29 -5 39 15 9 12 25 -5 25 -14 0 -19 15 -17 49 0 8 -6 24 -13 34 -7 11 -11 26 -8 33 3 8 2 22 -2 32 -4 9 -9 24 -11 32 -2 8 -10 44 -19 80 -8 36 -17 80 -19 99 -3 19 -9 37 -14 40 -17 11 -29 88 -21 132 11 61 27 117 28 100 1 -8 4 -12 7 -8 3 3 2 13 -4 23 -7 13 -1 24 32 53 22 20 93 83 156 140 134 122 149 136 295 267 61 54 115 103 121 109 6 5 51 46 99 90 49 44 101 91 116 105 15 14 62 57 105 95 43 39 135 122 204 185 70 63 162 147 205 185 43 39 91 81 105 95 15 14 139 126 276 250 341 308 330 298 321 306 -4 4 -24 0 -45 -10 -51 -25 -141 -32 -166 -13 -18 13 -19 16 -4 31 17 16 33 22 25 9 -3 -5 27 -7 66 -6 40 1 81 2 91 3 25 0 15 10 -16 15 -145 24 -272 47 -313 55 -55 11 -72 13 -190 30 -44 6 -111 17 -150 25 -38 8 -92 17 -120 20 -52 7 -191 29 -235 39 -33 6 -88 15 -152 22 -49 6 -102 15 -155 27 -11 3 -43 8 -70 12 -89 12 -102 15 -280 45 -32 5 -76 12 -98 15 -120 18 -158 25 -163 30 -3 3 4 49 16 103 19 87 42 267 60 472 8 98 9 710 1 775 -4 28 -9 57 -12 65 -3 8 -12 62 -21 120 -9 58 -21 119 -26 135 -11 35 -51 176 -55 190 -2 12 -6 21 -57 150 -22 55 -41 106 -41 113 0 6 -4 12 -8 12 -7 0 -24 49 -20 63 1 5 -2 6 -7 3 -8 -5 -69 113 -65 126 2 5 -1 8 -7 8 -5 0 -22 21 -37 48 -85 147 -262 364 -388 477 -95 86 -240 193 -332 244 -43 25 -81 49 -84 54 -3 5 -9 8 -13 7 -3 0 -27 8 -52 20 -26 11 -50 20 -53 20 -4 0 -13 6 -19 13 -7 6 -16 12 -20 12 -21 1 -102 29 -102 35 0 4 -12 10 -27 13 -60 11 -89 18 -123 29 -19 7 -39 13 -45 14 -28 6 -87 16 -145 26 -64 10 -2095 21 -2152 11z m2485 -127 c18 -8 57 -22 87 -31 93 -29 290 -130 395 -203 196 -136 383 -329 520 -537 84 -128 174 -294 206 -380 12 -33 25 -64 29 -70 4 -5 15 -35 24 -65 10 -30 20 -62 23 -70 17 -43 65 -224 69 -260 3 -19 11 -71 19 -115 15 -87 28 -229 18 -205 -3 8 -14 27 -24 42 -11 14 -19 36 -19 47 0 12 -3 21 -7 21 -5 0 -9 10 -9 23 -1 12 -5 38 -9 57 -4 19 -8 42 -9 50 -2 8 -6 22 -9 30 -6 14 -31 109 -44 170 -3 14 -10 30 -15 37 -5 6 -11 24 -14 39 -3 16 -9 33 -14 39 -5 7 -11 20 -13 31 -1 10 -5 24 -9 29 -4 6 -20 45 -37 88 -57 142 -147 307 -246 447 -160 226 -423 476 -605 577 -19 10 -61 36 -92 56 -31 20 -62 37 -68 37 -6 0 -28 11 -49 25 -22 13 -51 27 -65 31 -14 3 -26 10 -26 14 0 4 -9 10 -20 13 -13 3 -18 11 -14 20 4 11 -2 17 -18 20 -16 3 -18 5 -5 6 11 0 33 -5 50 -13z m-2478 -564 c16 -26 44 -71 62 -101 19 -29 39 -59 46 -67 7 -7 35 -50 62 -94 28 -44 100 -155 160 -247 133 -203 205 -318 205 -328 0 -4 -42 -5 -92 -1 -51 3 -183 7 -293 8 l-200 2 2 425 c1 235 2 432 2 439 2 23 16 12 46 -36z m-68 -1236 c5 -4 7 -584 2 -580 -4 2 -9 22 -13 44 l-6 40 -364 0 -365 0 5 27 c3 15 6 28 7 29 1 1 31 8 67 17 36 9 90 22 120 30 30 8 88 23 128 32 154 36 145 30 137 82 -3 24 -8 55 -11 66 -2 12 -7 38 -10 57 -3 19 -12 65 -18 101 l-13 65 166 -4 c91 -2 167 -5 168 -6z m3 -918 c0 -29 3 -84 6 -123 8 -82 -1 -86 -11 -5 -6 53 -16 74 -35 76 -6 1 -170 2 -365 3 l-355 1 0 50 0 50 380 0 380 0 0 -52z m515 -210 c61 -30 113 -86 134 -144 24 -63 38 -169 23 -178 -13 -8 -62 50 -62 74 0 9 -7 23 -15 30 -8 7 -15 17 -15 23 0 12 -55 79 -126 154 -30 31 -54 61 -54 66 0 13 67 -1 115 -25z m-730 -190 c58 -30 75 -47 104 -105 21 -41 51 -58 51 -29 0 8 12 29 28 47 l27 33 5 -270 c3 -148 4 -271 3 -273 -6 -9 -14 7 -16 28 -1 21 -2 21 -374 21 l-373 0 0 128 c0 224 54 346 184 415 65 35 74 36 196 34 102 -3 121 -6 165 -29z m610 -717 c6 -4 28 -13 50 -20 82 -28 155 -93 197 -174 21 -43 37 -157 22 -157 -17 0 -54 31 -54 44 0 8 -7 19 -15 26 -9 7 -22 27 -30 44 -19 38 -96 121 -150 161 -55 40 -95 77 -95 88 0 9 57 0 75 -12z m-395 -190 c0 -93 4 -181 10 -195 5 -14 6 -26 2 -26 -4 0 -13 14 -19 30 -8 20 -18 30 -32 30 -19 0 -21 6 -22 78 -2 120 2 235 7 244 3 4 16 8 30 8 l24 0 0 -169z m-288 -12 c2 -73 -1 -134 -6 -140 -6 -5 -42 -9 -81 -9 -73 0 -95 -10 -95 -41 0 -20 72 -83 113 -98 16 -6 101 -11 193 -11 l164 0 0 -171 c0 -140 -2 -169 -13 -161 -8 7 -79 12 -188 13 -173 1 -280 11 -328 32 -14 5 -29 10 -33 9 -5 -1 -8 2 -8 7 0 5 -8 11 -17 15 -22 7 -90 46 -81 46 4 0 -7 15 -23 33 -54 58 -73 112 -77 221 -4 109 9 160 60 230 41 57 129 112 207 130 101 23 103 24 158 25 l52 1 3 -131z m-644 -246 c5 -16 14 -37 18 -48 4 -11 8 -24 9 -30 8 -75 163 -232 270 -274 26 -10 22 -11 -35 -6 -87 7 -181 53 -222 109 -37 50 -67 117 -74 165 -3 20 -7 42 -10 50 -2 7 0 19 6 26 6 7 10 17 9 21 -6 35 14 25 29 -13z m932 -873 l0 -390 -385 0 -385 0 0 153 0 154 93 22 c50 12 132 32 181 43 94 22 191 67 191 90 0 10 -49 14 -230 18 l-230 5 -3 148 -3 147 386 0 385 0 0 -390z m30 -538 c-19 -36 -30 -115 -30 -210 l0 -100 -65 -7 -65 -7 -19 -66 c-37 -127 -39 -117 19 -130 28 -7 67 -12 86 -12 31 0 34 3 34 30 0 17 4 30 9 30 7 0 5 -167 -2 -191 -2 -5 -188 26 -327 56 -41 8 -102 20 -135 25 -158 24 -253 42 -282 51 l-33 11 0 129 c0 71 1 129 3 130 1 0 52 9 112 19 61 10 173 30 250 43 77 14 194 35 260 46 66 12 125 23 132 25 12 5 45 135 37 148 -3 4 2 5 10 2 11 -4 12 -11 6 -22z m-363 -1056 c60 -19 135 -87 154 -141 16 -43 43 -46 63 -7 8 15 35 48 60 72 25 24 47 55 49 69 2 14 5 -83 6 -216 l1 -243 -390 0 c-305 0 -390 3 -390 13 -1 6 -1 93 0 192 l0 180 38 33 c60 52 138 73 257 68 55 -3 123 -12 152 -20z m856 -52 c46 -30 94 -94 107 -145 13 -49 21 -139 12 -139 -13 0 -52 31 -52 40 0 14 -60 111 -84 138 -44 48 -53 58 -74 89 -12 17 -22 37 -22 43 0 19 68 3 113 -26z m-275 -1330 c29 -13 58 -24 65 -24 7 0 21 -6 32 -14 11 -7 45 -21 75 -31 30 -10 64 -24 75 -31 11 -8 26 -14 35 -14 9 0 33 -9 54 -20 22 -11 62 -27 90 -36 28 -9 56 -20 61 -24 6 -4 36 -16 68 -26 31 -10 57 -21 57 -25 0 -4 29 -15 65 -24 36 -10 65 -21 65 -25 0 -4 19 -13 43 -19 23 -7 66 -24 94 -37 29 -13 65 -26 80 -30 16 -3 37 -12 48 -19 11 -6 38 -18 60 -25 22 -7 49 -18 61 -25 11 -7 44 -20 74 -29 29 -9 58 -20 64 -25 6 -4 29 -14 51 -21 22 -7 64 -23 93 -36 29 -13 57 -24 61 -24 5 0 32 -11 59 -25 28 -14 56 -25 63 -25 8 0 37 -12 64 -25 28 -14 57 -25 65 -25 8 0 29 -7 45 -16 17 -9 54 -25 84 -35 30 -10 59 -23 65 -28 6 -5 31 -15 56 -22 25 -7 54 -18 65 -25 11 -7 61 -24 110 -39 114 -34 132 -49 49 -42 -74 6 -181 36 -284 80 -14 6 -29 10 -34 8 -5 -1 -16 5 -26 14 -9 8 -19 12 -23 9 -3 -3 -18 1 -34 9 -15 8 -39 19 -53 25 -14 5 -38 15 -53 21 -16 6 -57 21 -90 32 -34 11 -66 25 -71 30 -6 5 -18 9 -28 9 -10 0 -18 4 -18 10 0 5 -16 12 -35 16 -19 3 -39 12 -46 20 -6 8 -15 11 -21 8 -5 -3 -16 0 -24 7 -9 7 -24 14 -33 16 -9 1 -62 20 -118 43 -55 22 -105 40 -110 40 -6 0 -16 7 -23 15 -7 9 -15 13 -18 11 -2 -3 -14 0 -26 6 -11 7 -28 13 -36 14 -8 2 -23 7 -35 12 -35 16 -68 29 -117 47 -26 9 -50 21 -53 26 -4 5 -16 9 -27 9 -11 0 -39 9 -62 19 -77 36 -184 80 -192 80 -3 0 -15 6 -27 14 -12 8 -41 18 -65 22 -23 4 -44 11 -48 16 -3 5 -14 9 -25 9 -10 0 -19 5 -19 10 0 6 -7 10 -15 10 -8 0 -40 12 -72 26 -32 15 -67 29 -78 31 -11 2 -38 12 -60 22 -22 11 -65 28 -97 39 -54 20 -108 62 -108 84 0 13 40 3 108 -28z"/>
<path d="M5910 8037 c-14 -7 -31 -24 -38 -39 -11 -24 -8 -34 41 -119 l52 -94 137 -3 c132 -2 137 -2 143 19 4 13 2 24 -5 29 -6 4 -11 10 -11 14 1 3 0 8 0 11 -1 3 -3 10 -4 15 -1 6 -3 11 -5 13 -1 1 -4 15 -6 32 -3 16 -11 33 -17 37 -7 4 -8 8 -2 8 5 0 4 5 -2 11 -6 6 -9 19 -6 28 3 12 2 11 -7 -2 -11 -18 -13 -18 -31 -1 -13 12 -16 21 -9 29 8 9 -10 14 -73 18 -112 9 -128 9 -157 -6z"/>
<path d="M5946 4418 c-24 -38 -107 -280 -104 -302 3 -20 10 -21 161 -24 86 -1 157 0 157 3 0 2 14 68 31 145 17 77 28 151 25 164 -8 31 -29 36 -153 36 -96 0 -104 -2 -117 -22z"/>
<path d="M8056 6008 c-14 -20 -16 -119 -15 -878 l0 -855 97 -155 97 -155 57 -3 c108 -6 221 78 278 206 l25 57 0 720 c0 715 -2 795 -17 795 -4 0 -8 7 -8 15 0 27 -50 99 -103 147 -46 42 -118 75 -201 93 -6 1 -18 4 -26 7 -108 37 -162 38 -184 6z m407 -126 c56 -37 106 -147 99 -219 -2 -29 -8 -53 -13 -53 -4 0 -6 7 -3 15 4 11 2 13 -8 10 -10 -4 -21 6 -33 32 -10 21 -16 38 -14 38 2 0 -2 7 -9 15 -67 80 -102 137 -102 167 0 31 2 34 22 27 13 -4 40 -18 61 -32z"/>
</g>
</svg>